<svg version="1" xmlns="http://www.w3.org/2000/svg" width="460" height="460" viewBox="0 0 345 345"><path d="M153.5 84.7c-8.1.7-26.2 4.5-35.5 7.5-12.1 3.8-31.1 13-42 20.3-30 20.2-52.8 49-65.4 82.8C4.2 212.4.1 234.5 0 251.7v8.3h341.3l-.6-13.4c-2.8-62.9-39.3-118-96.2-145.6-24.3-11.8-48.6-17.2-75.5-16.8-6.3.1-13.3.3-15.5.5zm24.6 113.4l16.4 21.1.3-21.1.2-21.1h67v19h-16v24.2c.1 21 .3 23.9 1.4 21.3.7-1.7 7.1-16.3 14.1-32.5s13.2-30.1 13.8-30.8c.7-.9 3.3-1.2 8.6-1l7.6.3 14.7 34c8.2 18.7 14.8 34.3 14.8 34.7 0 .4-4.4.8-9.8.8h-9.8l-2.3-5.5-2.3-5.5H270l-2.5 5.5-2.4 5.5H227v-51h-14l-.2 25.2-.3 25.3-8.6.3-8.5.3-16.5-20.8-16.4-20.8-.3 20.8-.2 20.7h-18v-34.3c0-18.9.3-34.7.7-35 .3-.4 4.3-.7 8.8-.7h8.1l16.5 21.1zM130 220.5c6.6 9.8 6.6 9.9 3.2 12.4l-3 2.1-2.7-4.2-2.8-4.2-2.1 2.8c-5.5 7.6-4.8 7.5-9.1 1.6l-3.9-5.3-4.3 4.7c-2.4 2.5-4.5 4.6-4.7 4.6-.1 0-1.7-2-3.6-4.5l-3.4-4.5-4.3 4.7-4.3 4.8-3.9-4.4-4-4.5-4 3.7c-2.3 2-4.4 3.7-4.8 3.7-.4 0-2.4-1.6-4.4-3.6l-3.7-3.6-3.8 5-3.7 5.1-3.9-5c-3.6-4.5-5.8-6-5.8-4.2 0 .5-1.5 2.5-3.3 4.6l-3.2 3.9-3.4-4.6-3.5-4.6-2.5 4c-1.4 2.2-3 4-3.4 4-1.2 0-5.7-3.2-5.7-4.1 0-.4 2.4-4.5 5.2-8.9l5.3-8.2 4 4.7 3.9 4.6 4.1-4.6 4-4.6 3.9 5.1 3.9 5.1 3.5-5.1 3.6-5 4.8 4.7 4.8 4.7 4.3-4.2 4.4-4.3 3.6 4.3 3.7 4.3 4.4-4.7 4.4-4.8 3.8 4.7 3.8 4.6 4.4-4.7 4.4-4.7 2.9 3.3c1.5 1.8 2.8 3.6 2.9 4 .1 2 2.2.4 5-3.7 1.7-2.5 3.3-4.5 3.5-4.5.2 0 2.7 3.4 5.5 7.5z"/><path d="M280.8 211l-2.5 5.5 4.5.3c2.4.2 4.6.1 4.9-.2.3-.2-.6-2.9-2-5.8l-2.4-5.3-2.5 5.5z"/></svg>